<svg xmlns="http://www.w3.org/2000/svg" xmlns:svg="http://www.w3.org/2000/svg" style="enable-background:new" id="svg8" width="14" height="14" version="1.1"><metadata id="metadata14"/><path id="path2" d="M 7.0000613,14 C 10.86599,14 14,10.866 14,7 14,3.134 10.86599,0 7.0000613,0 3.1340186,0 -3e-7,3.134 -3e-7,7 c 0,3.866 3.1340189,7 7.0000616,7" style="fill:#a00;fill-opacity:1;fill-rule:evenodd;stroke:none"/><path id="path4" d="M 7.0000673,13.5001 C 10.589848,13.5001 13.5,10.5898 13.5,7 13.5,3.4101 10.589848,0.5 7.0000673,0.5 3.4101537,0.5 0.4999997,3.4101 0.4999997,7 c 0,3.5898 2.910154,6.5001 6.5000676,6.5001" style="fill:#d40000;fill-opacity:1;fill-rule:evenodd;stroke:none"/><path id="path4-3" d="m 4.1715732,4.1716 c -0.3917372,0.3917 -0.3917372,1.0224 0,1.4142 L 5.5857863,7 4.1715732,8.4142 c -0.3917372,0.3918 -0.3917372,1.0225 0,1.4142 0.3917371,0.3918 1.0224761,0.3918 1.4142131,0 l 1.414214,-1.4142 1.414214,1.4142 c 0.391737,0.3918 1.022476,0.3918 1.414213,0 0.3917367,-0.3917 0.3917367,-1.0224 0,-1.4142 L 8.4142143,7 9.8284273,5.5858 c 0.3917367,-0.3918 0.3917367,-1.0225 0,-1.4142 -0.391737,-0.3918 -1.022476,-0.3918 -1.414213,0 L 7.0000003,5.5858 5.5857863,4.1716 c -0.391737,-0.3918 -1.022476,-0.3918 -1.4142131,0 z" style="opacity:.5;fill:#000;fill-opacity:1;stroke:none;stroke-width:2;stroke-linecap:round;stroke-linejoin:round;stroke-miterlimit:4;stroke-dasharray:none;stroke-opacity:1;enable-background:new"/></svg>