<svg xmlns="http://www.w3.org/2000/svg" xmlns:svg="http://www.w3.org/2000/svg" style="enable-background:new" id="svg8" width="14" height="14" version="1.1"><metadata id="metadata14"/><path id="path2" d="M 7.0000613,14 C 10.86599,14 14,10.866 14,7 14,3.134 10.86599,0 7.0000613,0 3.1340186,0 -3e-7,3.134 -3e-7,7 c 0,3.866 3.1340189,7 7.0000616,7" style="fill:#999;fill-opacity:1;fill-rule:evenodd;stroke:none"/><path id="path4" d="M 7.0000673,13.5001 C 10.589848,13.5001 13.5,10.5898 13.5,7 13.5,3.4101 10.589848,0.5 7.0000673,0.5 3.4101537,0.5 0.4999997,3.4101 0.4999997,7 c 0,3.5898 2.910154,6.5001 6.5000676,6.5001" style="opacity:1;fill:#b3b3b3;fill-opacity:1;fill-rule:evenodd;stroke:none"/><path id="path4-3" d="M 5.4140633,4 10,8.5859 V 5 C 10,4.5845 9.4155003,4 9.0000003,4 Z M 4.0000003,5.4141 V 9 c 0,0.4155 0.5845,1 1,1 h 3.585938 z" style="opacity:.5;fill:#000;fill-opacity:1;stroke:none;stroke-width:2;stroke-linecap:round;stroke-linejoin:round;stroke-miterlimit:4;stroke-dasharray:none;stroke-opacity:1;enable-background:new"/></svg>