<svg xmlns="http://www.w3.org/2000/svg" xmlns:svg="http://www.w3.org/2000/svg" style="enable-background:new" id="svg8" width="28" height="28" version="1.1"><metadata id="metadata14"/><path id="path2" d="m 14.000122,27.999995 c 7.731858,0 13.999877,-6.267999 13.999877,-13.999999 C 27.999999,6.2679964 21.73198,-3.3362198e-6 14.000122,-3.3362198e-6 6.2680371,-3.3362198e-6 -3.9999994e-7,6.2679964 -3.9999994e-7,13.999996 -3.9999994e-7,21.731996 6.2680371,27.999995 14.000122,27.999995" style="fill:#b3b3b3;fill-opacity:1;fill-rule:evenodd;stroke:none;stroke-width:1.99999988"/><path id="path4" d="m 14.000134,27.000195 c 7.179562,0 12.999865,-5.820599 12.999865,-13.000199 0,-7.1797997 -5.820303,-12.99999939 -12.999865,-12.99999939 -7.1798267,0 -13.00013445,5.82019969 -13.00013445,12.99999939 0,7.1796 5.82030775,13.000199 13.00013445,13.000199" style="opacity:1;fill:#cac9cc;fill-opacity:1;fill-rule:evenodd;stroke:none;stroke-width:1.99999988"/></svg>