<svg xmlns="http://www.w3.org/2000/svg" xmlns:svg="http://www.w3.org/2000/svg" id="svg12" width="16" height="16" version="1.1" viewBox="0 0 4.233 4.233"><metadata id="metadata2"/><rect id="rect4" width="4.233" height="4.233" x="-.001" y="0" style="color:#000;fill:none;stroke-width:.23214999"/><rect style="color:#000;fill:#999;fill-opacity:1;stroke:none;stroke-width:.28493169;stroke-linejoin:round;stroke-opacity:1;opacity:.406" id="rect6" width="3.704" height="3.704" x=".265" y=".265" rx="1.794" ry="1.828"/><path id="path8" d="m 2.80807,2.256679 c 0,0.3826735 -0.3105234,0.692896 -0.693568,0.692896 -0.3830446,0 -0.693568,-0.3102225 -0.693568,-0.692896 0,-0.3826735 0.3105234,-0.692896 0.693568,-0.692896 0.3830446,0 0.693568,0.3102225 0.693568,0.692896 z" style="opacity:.70099996;stroke-width:.21663497"/><path id="path10" d="m 2.80807,2.1044952 c 0,0.3826735 -0.3105234,0.692896 -0.693568,0.692896 -0.3830446,0 -0.693568,-0.3102225 -0.693568,-0.692896 0,-0.3826735 0.3105234,-0.692896 0.693568,-0.692896 0.3830446,0 0.693568,0.3102225 0.693568,0.692896 z" style="fill:#fff;fill-opacity:1;stroke-width:.21663497"/></svg>